#N canvas 1 23 1439 795 10;
#N canvas 0 22 450 300 (subpatch) 0;
#X array hanning 256 float 1;
#A 0 0 0.000150591 0.000602275 0.00135478 0.00240764 0.00376022 0.00541174
0.00736117 0.00960734 0.0121489 0.0149843 0.0181119 0.0215298 0.0252359
0.0292279 0.0335035 0.0380601 0.042895 0.0480052 0.0533877 0.0590392
0.0649563 0.0711355 0.077573 0.084265 0.0912073 0.0983959 0.105826
0.113494 0.121395 0.129524 0.137876 0.146446 0.155229 0.16422 0.173413
0.182803 0.192384 0.20215 0.212095 0.222214 0.2325 0.242948 0.25355
0.264301 0.275194 0.286222 0.297379 0.308658 0.320052 0.331555 0.343159
0.354857 0.366643 0.378509 0.390449 0.402454 0.414519 0.426634 0.438794
0.450991 0.463218 0.475466 0.487729 0.5 0.512271 0.524534 0.536782
0.549009 0.561205 0.573365 0.585481 0.597545 0.609551 0.62149 0.633357
0.645143 0.656841 0.668445 0.679948 0.691342 0.702621 0.713778 0.724806
0.735699 0.74645 0.757052 0.767499 0.776667 0.786667 0.8 0.81 0.813333
0.816667 0.83 0.84 0.843333 0.846667 0.856667 0.86 0.866667 0.87 0.87
0.88 0.886667 0.89 0.896667 0.903333 0.906667 0.91 0.916667 0.92 0.923333
0.926666 0.93 0.933333 0.936666 0.94 0.943333 0.946666 0.95 0.95 0.95
0.95 0.95 0.95 0.95 0.95 0.95 0.95 0.95 0.95 0.946666 0.946666 0.94
0.94 0.936666 0.936666 0.935 0.933333 0.931666 0.93 0.923333 0.92 0.913333
0.91 0.906667 0.893333 0.883333 0.876667 0.873333 0.863333 0.856667
0.85 0.843333 0.836667 0.833333 0.82 0.82 0.816667 0.813333 0.803333
0.798333 0.793333 0.78 0.77 0.765 0.75 0.74 0.735 0.723333 0.718333
0.713333 0.705 0.69 0.685 0.68 0.666667 0.661667 0.656667 0.643333
0.633333 0.626667 0.62 0.613333 0.603333 0.59 0.586667 0.573334 0.566667
0.56 0.553334 0.546667 0.538334 0.53 0.523334 0.516667 0.508334 0.5
0.494445 0.488889 0.483334 0.48 0.476667 0.466667 0.443334 0.42 0.403334
0.38 0.37 0.362223 0.354445 0.346667 0.336667 0.331667 0.326667 0.316667
0.306667 0.296667 0.28 0.273334 0.266667 0.256667 0.252223 0.247778
0.243334 0.236667 0.23 0.221667 0.213334 0.200001 0.193334 0.176667
0.173334 0.166667 0.153334 0.140001 0.113333 0.106667 0.1 0.0933333
0.09 0.0866666 0.08 0.0733333 0.0666667 0.0666667 0.0633333 0.06 0.0566667
0.0533333 0.05 0.0466667 0.04 0.0383334 0.0133334;
#X coords 0 1 256 0 40 30 1;
#X restore 132 -1255 graph;
#X text 117 -1238 0;
#X text 117 -1261 1;
#X text 120 -1222 0;
#X text 156 -1222 256;
#X obj 612 -654 hsl 128 15 0 1 0 1 empty empty empty -2 -8 0 10 -262144
-1 -1 7600 1;
#X obj 365 -736 random 2;
#X obj 327 -736 lop~;
#X obj 327 -710 lop~;
#X obj 327 -684 hip~;
#X obj 327 -658 hip~;
#X obj 528 -658 hip~;
#X obj 528 -684 hip~;
#X obj 528 -710 lop~;
#X obj 528 -736 lop~;
#X obj 365 -710 sel 0 1;
#X obj 384 -632 line;
#X obj 437 -736 random 2;
#X obj 437 -710 sel 0 1;
#X obj 456 -632 line;
#X obj 327 -814 catch~ \$0-l_fx;
#X obj 528 -814 catch~ \$0-r_fx;
#X obj 528 -576 freezeverb 300;
#X obj 327 -576 freezeverb 299;
#X obj 528 -762 *~;
#X obj 327 -762 *~;
#X msg 437 -658 300 2500;
#X msg 365 -658 300 2500;
#X obj 484 -576 *~ 24;
#X obj 440 -576 *~ 24;
#X obj 528 -632 *~ 3;
#X obj 327 -632 *~ 3;
#X obj 327 -520 master;
#X obj 453 -811 metro 5000;
#X obj 453 -844 r met1;
#X obj 593 -790 random 2;
#X obj 593 -764 sel 0 1;
#X obj 612 -686 line;
#X obj 543 -788 / 5000;
#N canvas 0 22 450 278 (subpatch) 0;
#X array array1 861017 float 2;
#X coords 0 -1 861017 1 200 140 1 0 0;
#X restore 951 -924 graph;
#X obj 949 -981 soundfiler;
#X floatatom 949 -959 7 0 0 0 - - -, f 7;
#X obj 952 -924 hsl 200 140 0 861017 0 0 empty empty empty -2 -8 0
10 -262144 -258113 -1 525 1;
#X obj 952 -782 hsl 200 15 0 861017 0 0 empty empty empty -2 -8 0 10
-262144 -1 -1 0 1;
#X obj 952 -764 hsl 200 15 0 861017 0 0 empty empty empty -2 -8 0 10
-262144 -1 -1 2889 1;
#X text 1159 -782 Start;
#X text 1159 -764 End;
#X floatatom 1122 -745 5 0 0 0 - - -, f 5;
#X text 1159 -745 Grain Size;
#N canvas 2 23 1091 700 grains 0;
#X obj 21 38 inlet;
#X obj 66 38 inlet;
#X obj 149 38 inlet;
#X obj 108 609 outlet;
#X obj 77 272 snapshot~;
#X floatatom 77 294 10 0 0 0 - - -, f 10;
#X floatatom 21 65 5 0 0 0 - - -, f 5;
#X floatatom 66 65 5 0 0 0 - - -, f 5;
#X floatatom 21 170 10 0 0 0 - - -, f 10;
#X obj 21 116 f;
#X obj 66 116 f;
#X obj 66 89 t b f;
#X obj 21 143 -;
#X floatatom 21 221 5 0 0 0 - - -, f 5;
#X obj 21 194 expr 44100 / $f1;
#X obj 21 245 phasor~;
#X obj 21 272 *~;
#X obj 21 299 +~;
#X obj 153 128 random;
#X floatatom 153 177 10 0 0 0 - - -, f 10;
#X obj 153 155 +;
#X obj 77 245 metro 1;
#X obj 21 382 snapshot~;
#X obj 244 215 metro;
#X obj 244 237 f;
#X obj 244 259 t f b;
#X msg 244 282 0 \, 1 \$1;
#X obj 244 303 line~;
#X floatatom 287 215 10 0 0 0 - - -, f 10;
#X obj 244 325 *~;
#X obj 244 347 +~;
#X floatatom 287 124 10 0 0 0 - - -, f 10;
#X obj 287 185 expr (1 / $f1)*1000;
#X obj 287 144 expr 44100 / $f1;
#X floatatom 287 166 5 0 0 0 - - -, f 5;
#X floatatom 287 71 5 0 0 0 - - -, f 5;
#X obj 171 101 -;
#X text 321 71 Grain Size;
#X obj 287 100 expr $f1 * 500 + 1000;
#X obj 451 420 hradio 15 1 0 2 empty empty empty 0 -8 0 10 -262144
-1 -1 1;
#X obj 157 533 spigot;
#X obj 89 533 spigot;
#X obj 182 515 tgl 15 0 empty empty empty 17 7 0 10 -262144 -1 -1 0
1;
#X obj 114 515 tgl 15 0 empty empty empty 17 7 0 10 -262144 -1 -1 1
1;
#X obj 164 471 sel 0 1;
#X obj 182 498 != 1;
#X obj 114 498 != 1;
#X floatatom 157 436 8 0 0 0 - - -, f 8;
#X floatatom 89 436 8 0 0 0 - - -, f 8;
#X obj 454 31 inlet;
#X obj 99 471 loadbang;
#X text 392 516 inputs: 1 End 2 Start 3 Grain Size 4 Play / Random
output: 1 Audio Index;
#X obj 77 218 r met1;
#X connect 0 0 6 0;
#X connect 1 0 7 0;
#X connect 2 0 35 0;
#X connect 4 0 5 0;
#X connect 5 0 48 0;
#X connect 6 0 9 0;
#X connect 7 0 11 0;
#X connect 7 0 17 1;
#X connect 7 0 20 1;
#X connect 8 0 14 0;
#X connect 8 0 16 1;
#X connect 8 0 36 0;
#X connect 9 0 12 0;
#X connect 10 0 12 1;
#X connect 11 0 9 0;
#X connect 11 1 10 0;
#X connect 12 0 8 0;
#X connect 13 0 15 0;
#X connect 14 0 13 0;
#X connect 15 0 16 0;
#X connect 16 0 17 0;
#X connect 17 0 4 0;
#X connect 18 0 20 0;
#X connect 19 0 30 1;
#X connect 20 0 19 0;
#X connect 21 0 4 0;
#X connect 21 0 22 0;
#X connect 22 0 47 0;
#X connect 23 0 24 0;
#X connect 24 0 25 0;
#X connect 25 0 26 0;
#X connect 25 1 18 0;
#X connect 26 0 27 0;
#X connect 27 0 29 0;
#X connect 28 0 24 1;
#X connect 28 0 23 1;
#X connect 29 0 30 0;
#X connect 30 0 22 0;
#X connect 31 0 33 0;
#X connect 31 0 29 1;
#X connect 31 0 36 1;
#X connect 32 0 28 0;
#X connect 33 0 34 0;
#X connect 34 0 32 0;
#X connect 35 0 38 0;
#X connect 36 0 18 1;
#X connect 38 0 31 0;
#X connect 39 0 44 0;
#X connect 40 0 3 0;
#X connect 41 0 3 0;
#X connect 42 0 40 1;
#X connect 43 0 41 1;
#X connect 44 0 42 0;
#X connect 44 0 46 0;
#X connect 44 1 43 0;
#X connect 44 1 45 0;
#X connect 45 0 42 0;
#X connect 46 0 43 0;
#X connect 47 0 40 0;
#X connect 48 0 41 0;
#X connect 49 0 39 0;
#X connect 50 0 43 0;
#X connect 52 0 21 0;
#X connect 52 0 23 0;
#X restore 890 -745 pd grains;
#N canvas 0 22 538 398 sliderrange 0;
#X obj 102 44 inlet;
#X obj 65 117 pack f f;
#X msg 65 144 range \$1 \$2;
#X floatatom 65 93 5 0 0 0 - - -, f 5;
#X floatatom 102 71 5 0 0 0 - - -, f 5;
#X obj 102 90 t b f;
#X obj 65 166 outlet;
#X connect 0 0 4 0;
#X connect 1 0 2 0;
#X connect 2 0 6 0;
#X connect 3 0 1 0;
#X connect 4 0 5 0;
#X connect 5 0 1 0;
#X connect 5 1 1 1;
#X restore 847 -855 pd sliderrange;
#N canvas 32 27 667 710 grains 0;
#X obj 21 38 inlet;
#X obj 66 38 inlet;
#X obj 149 38 inlet;
#X obj 108 609 outlet;
#X obj 77 272 snapshot~;
#X floatatom 77 294 10 0 0 0 - - -, f 10;
#X floatatom 21 65 5 0 0 0 - - -, f 5;
#X floatatom 66 65 5 0 0 0 - - -, f 5;
#X floatatom 21 170 10 0 0 0 - - -, f 10;
#X obj 21 116 f;
#X obj 66 116 f;
#X obj 66 89 t b f;
#X obj 21 143 -;
#X floatatom 21 221 5 0 0 0 - - -, f 5;
#X obj 21 194 expr 44100 / $f1;
#X obj 21 245 phasor~;
#X obj 21 272 *~;
#X obj 21 299 +~;
#X obj 153 128 random;
#X floatatom 153 177 10 0 0 0 - - -, f 10;
#X obj 153 155 +;
#X obj 77 218 r met1;
#X obj 77 245 metro 1;
#X obj 21 382 snapshot~;
#X obj 244 215 metro;
#X obj 244 237 f;
#X obj 244 259 t f b;
#X msg 244 282 0 \, 1 \$1;
#X obj 244 303 line~;
#X floatatom 287 215 10 0 0 0 - - -, f 10;
#X obj 244 325 *~;
#X obj 244 347 +~;
#X floatatom 287 124 10 0 0 0 - - -, f 10;
#X obj 287 185 expr (1 / $f1)*1000;
#X obj 287 144 expr 44100 / $f1;
#X floatatom 287 166 5 0 0 0 - - -, f 5;
#X floatatom 287 71 5 0 0 0 - - -, f 5;
#X obj 171 101 -;
#X text 321 71 Grain Size;
#X obj 287 100 expr $f1 * 500 + 1000;
#X obj 451 420 hradio 15 1 0 2 empty empty empty 0 -8 0 10 -262144
-1 -1 1;
#X obj 157 533 spigot;
#X obj 89 533 spigot;
#X obj 182 515 tgl 15 0 empty empty empty 17 7 0 10 -262144 -1 -1 0
1;
#X obj 114 515 tgl 15 0 empty empty empty 17 7 0 10 -262144 -1 -1 0
1;
#X obj 164 471 sel 0 1;
#X obj 182 498 != 1;
#X obj 114 498 != 1;
#X floatatom 157 436 8 0 0 0 - - -, f 8;
#X floatatom 89 436 8 0 0 0 - - -, f 8;
#X obj 454 31 inlet;
#X connect 0 0 6 0;
#X connect 1 0 7 0;
#X connect 2 0 36 0;
#X connect 4 0 5 0;
#X connect 5 0 49 0;
#X connect 6 0 9 0;
#X connect 7 0 11 0;
#X connect 7 0 17 1;
#X connect 7 0 20 1;
#X connect 8 0 14 0;
#X connect 8 0 16 1;
#X connect 8 0 37 0;
#X connect 9 0 12 0;
#X connect 10 0 12 1;
#X connect 11 0 9 0;
#X connect 11 1 10 0;
#X connect 12 0 8 0;
#X connect 13 0 15 0;
#X connect 14 0 13 0;
#X connect 15 0 16 0;
#X connect 16 0 17 0;
#X connect 17 0 4 0;
#X connect 18 0 20 0;
#X connect 19 0 31 1;
#X connect 20 0 19 0;
#X connect 21 0 22 0;
#X connect 21 0 24 0;
#X connect 22 0 4 0;
#X connect 22 0 23 0;
#X connect 23 0 48 0;
#X connect 24 0 25 0;
#X connect 25 0 26 0;
#X connect 26 0 27 0;
#X connect 26 1 18 0;
#X connect 27 0 28 0;
#X connect 28 0 30 0;
#X connect 29 0 25 1;
#X connect 29 0 24 1;
#X connect 30 0 31 0;
#X connect 31 0 23 0;
#X connect 32 0 34 0;
#X connect 32 0 30 1;
#X connect 32 0 37 1;
#X connect 33 0 29 0;
#X connect 34 0 35 0;
#X connect 35 0 33 0;
#X connect 36 0 39 0;
#X connect 37 0 18 1;
#X connect 39 0 32 0;
#X connect 40 0 45 0;
#X connect 41 0 3 0;
#X connect 42 0 3 0;
#X connect 43 0 41 1;
#X connect 44 0 42 1;
#X connect 45 0 43 0;
#X connect 45 0 47 0;
#X connect 45 1 44 0;
#X connect 45 1 46 0;
#X connect 46 0 43 0;
#X connect 47 0 44 0;
#X connect 48 0 41 0;
#X connect 49 0 42 0;
#X connect 50 0 40 0;
#X restore 890 -745 pd grains;
#X obj 1124 -727 hradio 15 1 0 2 empty empty empty 0 -8 0 10 -262144
-1 -1 1;
#N canvas 574 225 623 517 output 0;
#X obj 58 74 inlet;
#X obj 494 74 inlet;
#X obj 104 253 samphold~;
#X obj 48 181 phasor~;
#X floatatom 48 165 5 0 0 0 - - -, f 5;
#X obj 48 253 *~ 256;
#X obj 48 275 +~;
#X obj 48 319 *~;
#X obj 48 341 *~ 0.25;
#X obj 244 253 samphold~;
#X obj 188 253 *~ 256;
#X obj 188 275 +~;
#X obj 214 275 tabread~ hanning;
#X obj 188 319 *~;
#X obj 188 341 *~ 0.25;
#X obj 188 225 wrap~;
#X obj 384 253 samphold~;
#X obj 328 253 *~ 256;
#X obj 328 275 +~;
#X obj 354 275 tabread~ hanning;
#X obj 328 319 *~;
#X obj 328 341 *~ 0.25;
#X obj 328 225 wrap~;
#X obj 328 198 +~ 0.5;
#X obj 524 253 samphold~;
#X obj 468 253 *~ 256;
#X obj 468 275 +~;
#X obj 494 275 tabread~ hanning;
#X obj 468 319 *~;
#X obj 468 341 *~ 0.25;
#X obj 468 225 wrap~;
#X obj 188 198 +~ 0.25;
#X obj 468 198 +~ 0.75;
#X obj 104 226 +~;
#X obj 104 180 sig~;
#X obj 74 275 tabread~ hanning;
#X obj 259 422 outlet~;
#X obj 48 297 tabread4~ array1;
#X obj 188 297 tabread4~ array1;
#X obj 328 297 tabread4~ array1;
#X obj 468 297 tabread4~ array1;
#X connect 0 0 34 0;
#X connect 1 0 4 0;
#X connect 2 0 6 1;
#X connect 3 0 2 1;
#X connect 3 0 5 0;
#X connect 3 0 23 0;
#X connect 3 0 31 0;
#X connect 3 0 32 0;
#X connect 4 0 3 0;
#X connect 5 0 6 0;
#X connect 5 0 35 0;
#X connect 6 0 37 0;
#X connect 7 0 8 0;
#X connect 8 0 36 0;
#X connect 9 0 11 1;
#X connect 10 0 11 0;
#X connect 10 0 12 0;
#X connect 11 0 38 0;
#X connect 12 0 13 1;
#X connect 13 0 14 0;
#X connect 14 0 36 0;
#X connect 15 0 9 1;
#X connect 15 0 10 0;
#X connect 16 0 18 1;
#X connect 17 0 18 0;
#X connect 17 0 19 0;
#X connect 18 0 39 0;
#X connect 19 0 20 1;
#X connect 20 0 21 0;
#X connect 21 0 36 0;
#X connect 22 0 16 1;
#X connect 22 0 17 0;
#X connect 23 0 22 0;
#X connect 24 0 26 1;
#X connect 25 0 26 0;
#X connect 25 0 27 0;
#X connect 26 0 40 0;
#X connect 27 0 28 1;
#X connect 28 0 29 0;
#X connect 29 0 36 0;
#X connect 30 0 24 1;
#X connect 30 0 25 0;
#X connect 31 0 15 0;
#X connect 32 0 30 0;
#X connect 33 0 9 0;
#X connect 33 0 16 0;
#X connect 33 0 24 0;
#X connect 33 0 2 0;
#X connect 34 0 33 0;
#X connect 35 0 7 1;
#X connect 37 0 7 0;
#X connect 38 0 13 0;
#X connect 39 0 20 0;
#X connect 40 0 28 0;
#X restore 890 -720 pd output;
#X floatatom 1122 -708 5 0 0 0 - - -, f 5;
#X text 1159 -727 Play / Random;
#X text 1159 -709 Pitch;
#X obj 823 -855 f;
#X obj 890 -569 throw~ \$0-l_fx;
#X obj 991 -569 throw~ \$0-r_fx;
#N canvas 806 222 547 544 type 0;
#X obj 197 150 inlet;
#X obj 197 174 hradio 15 1 0 2 empty empty empty 0 -8 0 10 -262144
-1 -1 0;
#X obj 215 240 tgl 15 0 empty empty empty 17 7 0 10 -262144 -1 -1 0
1;
#X obj 147 240 tgl 15 0 empty empty empty 17 7 0 10 -262144 -1 -1 1
1;
#X obj 197 196 sel 0 1;
#X obj 215 223 != 1;
#X obj 147 223 != 1;
#X obj 132 196 loadbang;
#X obj 122 415 outlet~;
#X obj 122 56 inlet~;
#X obj 232 322 mtof;
#X obj 232 298 nbx 5 14 -1e+37 1e+37 0 1 empty empty empty 0 -8 0 10
-262144 -1 -1 60 256;
#X obj 122 272 *~;
#X obj 190 272 *~;
#X obj 232 272 inlet;
#X obj 210 348 vcf~ 200;
#X obj 179 380 *~ 100;
#X connect 0 0 1 0;
#X connect 1 0 4 0;
#X connect 2 0 13 1;
#X connect 3 0 12 1;
#X connect 4 0 2 0;
#X connect 4 0 6 0;
#X connect 4 1 3 0;
#X connect 4 1 5 0;
#X connect 5 0 2 0;
#X connect 6 0 3 0;
#X connect 7 0 3 0;
#X connect 9 0 12 0;
#X connect 9 0 13 0;
#X connect 10 0 15 1;
#X connect 11 0 10 0;
#X connect 12 0 8 0;
#X connect 13 0 15 0;
#X connect 14 0 11 0;
#X connect 15 0 16 0;
#X connect 16 0 8 0;
#X restore 890 -695 pd type;
#X obj 1124 -690 hradio 15 1 0 2 empty empty empty 0 -8 0 10 -262144
-1 -1 0;
#X floatatom 1122 -671 5 0 0 0 - - -, f 5;
#X text 1159 -672 Note;
#X obj 890 -617 *~;
#X text 1159 -690 Noise / VCF;
#X obj 1124 -632 hradio 15 1 0 2 empty empty empty 0 -8 0 10 -262144
-1 -1 1;
#X obj 922 -617 sel 0 1;
#X text 1159 -632 Off / On;
#X obj 1024 -652 hsl 128 15 0 127 0 0 empty empty empty -2 -8 0 10
-262144 -1 -1 300 1;
#X obj 952 -669 / 127;
#X obj 890 -669 *~;
#X text 1159 -653 Volume;
#X obj 1024 -612 hsl 128 15 0 127 0 0 empty empty empty -2 -8 0 10
-262144 -1 -1 6350 1;
#X obj 986 -712 loadbang;
#X msg 997 -686 64;
#X text 1159 -613 Pan;
#N canvas 0 23 326 396 pan 0;
#X obj 168 77 hsl 128 15 0 127 0 0 empty empty empty -2 -8 0 10 -262144
-1 -1 6350 1;
#X floatatom 165 117 5 0 0 0 - - -, f 5;
#X obj 165 96 / 508;
#X obj 165 149 + 0.75;
#X obj 127 170 cos~;
#X obj 165 170 cos~;
#X obj 165 55 inlet;
#X obj 68 55 inlet~;
#X obj 68 239 *~;
#X obj 123 240 *~;
#X obj 123 266 outlet~;
#X obj 68 266 outlet~;
#X connect 0 0 2 0;
#X connect 1 0 3 0;
#X connect 1 0 4 0;
#X connect 2 0 1 0;
#X connect 3 0 5 0;
#X connect 4 0 8 1;
#X connect 5 0 9 1;
#X connect 6 0 0 0;
#X connect 7 0 8 0;
#X connect 7 0 9 0;
#X connect 8 0 11 0;
#X connect 9 0 10 0;
#X restore 890 -597 pd pan;
#X msg 37 -1146 \; pd dsp 0 \; met1 0 \; met2 0 \; met3 0 \; met4 0
\;;
#X msg 37 -1233 \; pd dsp 1 \; met1 1 \; met2 1 \; met3 1 \; met4 1
\;;
#X obj 377 -1103 until;
#X obj 377 -1025 i;
#X obj 409 -1025 + 1;
#X obj 377 -1129 t f b;
#X obj 377 -999 pack f f;
#X msg 392 -1051 1;
#N canvas 0 22 450 300 (subpatch) 0;
#X array scale 7 float 1;
#A 0 0 2 3 5 7 8 10;
#X coords 0 12 6 0 200 140 1;
#X restore 533 -1155 graph;
#X obj 441 -1129 tabread scale;
#X obj 377 -1077 t b b b;
#X obj 441 -1025 +;
#X obj 441 -1155 random 7;
#X obj 377 -1181 metro 5000;
#X obj 456 -1077 * 12;
#X obj 456 -1103 random 3;
#X floatatom 339 -939 5 0 0 0 - - -, f 5;
#X obj 377 -1208 loadbang;
#X floatatom 398 -939 5 0 0 0 - - -, f 5;
#X floatatom 453 -940 5 0 0 0 - - -, f 5;
#X floatatom 514 -940 5 0 0 0 - - -, f 5;
#X msg 377 -1155 4;
#X obj 377 -973 route 1 2 3 4;
#X obj 339 -920 s n1;
#X obj 398 -920 s n2;
#X obj 453 -921 s n3;
#X obj 514 -921 s n4;
#X obj 37 -1255 loadbang;
#X msg 1053 -719 180;
#X msg 456 -684 800 2500;
#X msg 384 -684 800 2500;
#X obj 543 -840 min 300;
#X floatatom 717 -748 5 0 0 0 - - -, f 5;
#X msg 612 -738 100 5000;
#X msg 593 -712 300 5000;
#X floatatom 455 -1186 5 0 0 0 - - -, f 5;
#X obj 456 -1051 + 36;
#X floatatom 589 -1193 5 0 0 0 - - -, f 5;
#X obj 552 -1195 * 100;
#X obj 498 -1193 +;
#X obj 498 -1212 random;
#X obj 622 -629 hsl 128 15 0 127 0 0 empty empty empty -2 -8 0 10 -262144
-1 -1 0 1;
#X floatatom 711 -540 5 0 0 0 - - -, f 5;
#X obj 642 -591 / 127;
#X obj 518 -541 *~;
#X obj 433 -541 *~;
#X text 200 -908 Volume;
#X obj 182 -1034 vradio 15 1 0 2 empty empty empty 0 -8 0 10 -262144
-1 -1 0;
#X obj 208 -1074 vradio 15 1 0 2 empty empty empty 0 -8 0 10 -262144
-1 -1 1;
#X obj 208 -1034 vradio 15 1 0 2 empty empty empty 0 -8 0 10 -262144
-1 -1 1;
#X text 205 -1001 R/P;
#X text 178 -1001 F/N;
#X text 204 -1093 I/O;
#X obj 182 -1067 tgl 15 0 empty empty empty 17 7 0 10 -262144 -258113
-1 1 1;
#X msg 124 -865 63.5;
#X obj 93 -892 loadbang;
#X obj 658 -1215 r met;
#X obj 658 -1196 * 100;
#X obj 628 -1195 + 1;
#X obj 280 -576 r vol;
#X obj 165 -839 s p1;
#X obj 182 -1121 s o_f1;
#X obj 182 -1175 s nv1;
#X obj 182 -1148 s pr1;
#X obj 280 -551 * 127;
#X obj 165 -904 s v1;
#X msg 1062 -964 \; array1 normalize;
#X obj 1277 -744 r pr1;
#X obj 1277 -707 r nv1;
#X obj 1276 -669 r v1;
#X obj 1276 -649 r o_f1;
#X obj 1276 -629 r p1;
#X obj 1073 -699 r n1;
#X msg 769 -600 \; met1 0 \;;
#X msg 826 -600 \; met1 1 \;;
#X msg 1002 -1113 symbol array1;
#X obj 820 -1142 bng 15 250 50 0 empty empty empty 17 7 0 10 -262144
-1 -1;
#X obj 905 -1096 pack s s s s;
#X msg 907 -1137 symbol -resize;
#X msg 893 -1159 symbol read;
#X msg 905 -1068 set \$1 \$2 \$3 \$4;
#X msg 906 -1032 read -resize ginza.wav array1;
#X obj 833 -1076 delay 1;
#X obj 1027 -1135 symbol;
#X obj 168 -933 hsl 128 15 0 127 0 0 empty empty empty -2 -8 0 10 -262144
-1 -1 300 1;
#X obj 168 -863 hsl 128 15 0 127 0 0 empty empty empty -2 -8 0 10 -262144
-1 -1 6350 1;
#X text 200 -838 Pan;
#X text 207 -648 Volume;
#X obj 168 -673 hsl 128 15 0 127 0 0 empty empty empty -2 -8 0 10 -262144
-1 -1 6000 1;
#X obj 165 -644 s vol;
#X msg 129 -674 60;
#X obj 168 -803 hsl 128 15 0 1 0 0 empty empty empty -2 -8 0 10 -262144
-1 -1 6350 1;
#X msg 124 -805 0.5;
#X obj 165 -779 s met;
#X text 200 -778 Metro;
#N canvas 0 22 538 398 sliderrange 0;
#X obj 102 44 inlet;
#X obj 65 117 pack f f;
#X msg 65 144 range \$1 \$2;
#X floatatom 65 93 5 0 0 0 - - -, f 5;
#X floatatom 102 71 5 0 0 0 - - -, f 5;
#X obj 102 90 t b f;
#X obj 65 166 outlet;
#X connect 0 0 4 0;
#X connect 1 0 2 0;
#X connect 2 0 6 0;
#X connect 3 0 1 0;
#X connect 4 0 5 0;
#X connect 5 0 1 0;
#X connect 5 1 1 1;
#X restore 55 -778 pd sliderrange;
#X msg 56 -817 1;
#X obj 1108 -1162 textfile;
#X obj 1108 -1065 print;
#X msg 1121 -1187 read s.txt;
#X msg 1121 -1212 rewind;
#X obj 1108 -1137 list;
#X floatatom 1195 -1173 5 0 0 0 - - -, f 5;
#X msg 1195 -1144 set adddollar \$1;
#X msg 1157 -1121 set;
#X msg 1108 -1091 \$1;
#X obj 1157 -1141 bng 15 250 50 0 empty empty empty 17 7 0 10 -262144
-1 -1;
#X msg 1195 -1122 adddollar 1;
#X msg 949 -1003 read -resize londoncafe.wav array1;
#X obj 1108 -1233 bng 15 250 50 0 empty empty empty 17 7 0 10 -262144
-1 -1;
#X msg 1111 -1253 choose file here # of file in s.txt file;
#X obj 995 -1179 loadbang;
#X msg 1195 -1232 1;
#X obj 667 -960 loadbang;
#X obj 667 -938 delay 5;
#X msg 667 -915 1;
#X msg 667 -896 3;
#X msg 695 -915 125000;
#X connect 5 0 22 1;
#X connect 5 0 23 1;
#X connect 6 0 15 0;
#X connect 7 0 8 0;
#X connect 8 0 9 0;
#X connect 9 0 10 0;
#X connect 10 0 31 0;
#X connect 11 0 30 0;
#X connect 12 0 11 0;
#X connect 13 0 12 0;
#X connect 14 0 13 0;
#X connect 15 0 27 0;
#X connect 15 1 108 0;
#X connect 16 0 7 1;
#X connect 16 0 8 1;
#X connect 16 0 9 1;
#X connect 16 0 10 1;
#X connect 17 0 18 0;
#X connect 18 0 26 0;
#X connect 18 1 107 0;
#X connect 19 0 14 1;
#X connect 19 0 13 1;
#X connect 19 0 12 1;
#X connect 19 0 11 1;
#X connect 20 0 25 0;
#X connect 21 0 24 0;
#X connect 22 0 123 0;
#X connect 22 1 122 0;
#X connect 23 0 123 0;
#X connect 23 1 122 0;
#X connect 24 0 14 0;
#X connect 24 0 28 0;
#X connect 25 0 7 0;
#X connect 25 0 29 0;
#X connect 26 0 19 0;
#X connect 27 0 16 0;
#X connect 28 0 32 1;
#X connect 29 0 32 0;
#X connect 30 0 22 0;
#X connect 31 0 23 0;
#X connect 33 0 17 0;
#X connect 33 0 6 0;
#X connect 33 0 35 0;
#X connect 34 0 33 0;
#X connect 35 0 36 0;
#X connect 36 0 112 0;
#X connect 36 1 111 0;
#X connect 37 0 109 0;
#X connect 38 0 24 1;
#X connect 38 0 25 1;
#X connect 40 0 41 0;
#X connect 40 0 144 0;
#X connect 41 0 50 0;
#X connect 43 0 49 1;
#X connect 44 0 49 0;
#X connect 47 0 49 2;
#X connect 49 0 53 0;
#X connect 49 0 57 0;
#X connect 50 0 43 0;
#X connect 50 0 44 0;
#X connect 50 0 42 0;
#X connect 52 0 49 3;
#X connect 53 0 60 0;
#X connect 54 0 53 1;
#X connect 57 0 42 0;
#X connect 60 0 71 0;
#X connect 61 0 60 1;
#X connect 62 0 60 2;
#X connect 64 0 77 0;
#X connect 66 0 64 1;
#X connect 66 0 67 0;
#X connect 67 0 151 0;
#X connect 67 1 152 0;
#X connect 69 0 70 0;
#X connect 70 0 71 1;
#X connect 71 0 64 0;
#X connect 73 0 77 1;
#X connect 74 0 75 0;
#X connect 74 0 106 0;
#X connect 75 0 73 0;
#X connect 77 0 58 0;
#X connect 77 1 59 0;
#X connect 80 0 88 0;
#X connect 81 0 82 0;
#X connect 81 0 84 0;
#X connect 82 0 81 1;
#X connect 83 0 80 0;
#X connect 83 1 85 0;
#X connect 84 0 100 0;
#X connect 85 0 81 1;
#X connect 87 0 89 0;
#X connect 88 0 81 0;
#X connect 88 1 90 0;
#X connect 88 2 93 0;
#X connect 89 0 84 1;
#X connect 90 0 87 0;
#X connect 91 0 99 0;
#X connect 91 0 118 0;
#X connect 92 0 114 0;
#X connect 93 0 92 0;
#X connect 94 0 101 0;
#X connect 95 0 91 0;
#X connect 96 0 102 0;
#X connect 97 0 103 0;
#X connect 98 0 104 0;
#X connect 99 0 83 0;
#X connect 100 0 94 0;
#X connect 100 1 96 0;
#X connect 100 2 97 0;
#X connect 100 3 98 0;
#X connect 105 0 79 0;
#X connect 106 0 54 0;
#X connect 107 0 19 0;
#X connect 108 0 16 0;
#X connect 109 0 38 0;
#X connect 109 0 110 0;
#X connect 111 0 37 0;
#X connect 112 0 37 0;
#X connect 113 0 91 1;
#X connect 114 0 89 1;
#X connect 115 0 116 0;
#X connect 116 0 117 1;
#X connect 116 0 118 1;
#X connect 117 0 113 0;
#X connect 118 0 117 0;
#X connect 119 0 121 0;
#X connect 121 0 120 0;
#X connect 121 0 122 1;
#X connect 121 0 123 1;
#X connect 122 0 32 1;
#X connect 123 0 32 0;
#X connect 125 0 140 0;
#X connect 126 0 131 0;
#X connect 126 0 139 0;
#X connect 127 0 141 0;
#X connect 132 0 163 0;
#X connect 133 0 132 0;
#X connect 133 0 168 0;
#X connect 133 0 170 0;
#X connect 133 0 174 0;
#X connect 134 0 135 0;
#X connect 135 0 136 0;
#X connect 136 0 115 0;
#X connect 137 0 142 0;
#X connect 142 0 32 2;
#X connect 145 0 52 0;
#X connect 146 0 61 0;
#X connect 147 0 69 0;
#X connect 148 0 66 0;
#X connect 149 0 73 0;
#X connect 150 0 62 0;
#X connect 153 0 155 3;
#X connect 154 0 155 0;
#X connect 154 0 160 0;
#X connect 155 0 158 0;
#X connect 156 0 155 1;
#X connect 157 0 155 0;
#X connect 158 0 159 0;
#X connect 159 0 40 0;
#X connect 160 0 159 0;
#X connect 161 0 155 2;
#X connect 162 0 143 0;
#X connect 163 0 138 0;
#X connect 166 0 167 0;
#X connect 168 0 166 0;
#X connect 169 0 171 0;
#X connect 170 0 169 0;
#X connect 173 0 169 0;
#X connect 174 0 173 0;
#X connect 175 0 179 0;
#X connect 177 0 175 0;
#X connect 178 0 175 0;
#X connect 179 0 183 0;
#X connect 180 0 181 0;
#X connect 180 0 184 0;
#X connect 180 0 187 0;
#X connect 181 0 185 0;
#X connect 182 0 183 0;
#X connect 183 0 176 0;
#X connect 183 0 161 0;
#X connect 184 0 182 0;
#X connect 184 0 185 0;
#X connect 185 0 183 0;
#X connect 186 0 40 0;
#X connect 187 0 175 0;
#X connect 187 0 178 0;
#X connect 187 0 154 0;
#X connect 189 0 157 0;
#X connect 189 0 156 0;
#X connect 189 0 153 0;
#X connect 189 0 161 0;
#X connect 189 0 177 0;
#X connect 189 0 178 0;
#X connect 189 0 190 0;
#X connect 190 0 180 0;
#X connect 191 0 192 0;
#X connect 192 0 193 0;
#X connect 192 0 194 0;
#X connect 192 0 195 0;
#X connect 193 0 126 0;
#X connect 194 0 162 0;
#X connect 195 0 44 0;
